<svg width="512" height="512" viewBox="0 0 512 512" fill="none" xmlns="http://www.w3.org/2000/svg">
<rect width="512" height="512" rx="90" fill="#3ACE75"/>
<path fill-rule="evenodd" clip-rule="evenodd" d="M67.2502 235.423C51.1345 219.64 47.776 201.425 57.1801 180.772C66.7527 159.616 84.6337 149.033 110.824 149.033C113.845 124.693 128.364 108.572 154.394 100.681C179.746 93.1302 200.227 97.1542 215.846 112.769C227.934 88.5891 246.57 76.673 271.757 77.0068C295.765 77.3478 314.485 87.8352 327.917 108.493C346.392 96.9104 364.439 95.5618 382.063 104.465C397.181 112.015 406.581 123.185 410.28 137.96C435.467 140.64 457.706 148.873 477.019 162.642C496.156 176.242 504.3 189.422 501.444 202.184C498.752 214.441 488.681 223.259 471.217 228.631C454.76 233.67 433.517 235.183 407.495 233.165V234.677C408.678 239.548 409.26 245 409.26 251.047C409.26 254.401 409.1 257.682 408.759 260.872C415.643 264.065 422.868 268.262 430.419 273.462C444.357 282.866 459.466 295.876 475.759 312.499C479.779 316.699 482.223 321.562 483.057 327.107C484.237 334.152 482.303 340.202 477.264 345.236C472.06 350.44 465.926 352.542 458.877 351.539C453.004 350.701 448.133 348.261 444.282 344.229C429.674 329.112 416.157 317.369 403.729 308.968C398.858 305.622 394.321 302.854 390.137 300.667C389.623 301.008 389.21 301.413 388.873 301.927C381.15 309.983 372.503 315.864 362.927 319.556C368.801 322.577 374.931 326.268 381.314 330.641C395.251 340.045 410.36 353.047 426.649 369.678C430.678 373.87 433.113 378.749 433.955 384.281C435.135 391.339 433.197 397.377 428.158 402.415C422.959 407.615 416.828 409.713 409.776 408.714C403.902 407.876 399.031 405.436 395.172 401.404C380.568 386.299 367.047 374.54 354.623 366.147C342.7 357.911 332.284 352.964 323.394 351.286H323.141C313.906 359.523 301.733 363.632 286.62 363.632C271.851 363.632 258.921 358.256 247.836 347.504C236.75 364.639 221.224 373.189 201.241 373.189C189.49 373.189 179.668 371.355 171.776 367.648C163.72 379.411 155.82 389.482 148.097 397.875C135.166 411.816 122.917 421.634 111.327 427.339C105.449 430.196 100.831 431.464 97.4696 431.111C92.2661 430.609 86.8939 426.75 81.3539 419.533C75.8134 412.146 73.8836 406.442 75.5606 402.405C76.5716 400.054 80.0139 397.454 85.8837 394.594H86.1364C94.365 390.574 103.344 383.256 113.089 372.68C123.167 361.603 133.57 347.248 144.318 329.619C144.819 328.781 145.405 328.031 146.079 327.349C145.578 323.83 145.325 320.131 145.325 316.272L145.329 314.001C136.599 322.739 126.521 327.938 115.11 329.615C100.668 342.711 87.2388 353.214 74.8143 361.105C58.8588 371.175 44.5076 377.475 31.7452 379.99C25.3662 381.33 20.6683 381.33 17.6436 379.99C12.6126 378.145 8.32778 373.017 4.80113 364.628C1.44313 356.071 1.10204 350.113 3.79011 346.747C5.30267 344.568 9.24641 342.887 15.625 341.708H15.8778C24.9408 340.035 35.5246 335.337 47.6162 327.609C53.1568 324.079 59.0342 319.878 65.2448 315.02C56.8477 305.784 52.655 292.268 52.655 274.467C52.655 259.526 57.8586 246.679 68.2696 235.935L67.2502 235.423ZM435.968 176.992C435.968 167.76 431.434 163.143 422.367 163.143C413.304 163.143 408.771 167.761 408.771 176.992C408.771 186.224 413.305 190.841 422.367 190.841C431.434 190.841 435.968 186.227 435.968 176.992Z" fill="#238249"/>
<path fill-rule="evenodd" clip-rule="evenodd" d="M89.7252 239.581C75.2211 225.376 72.1984 208.982 80.6621 190.394C89.2775 171.354 105.37 161.83 128.942 161.83C131.66 139.923 144.728 125.415 168.155 118.313C190.972 111.517 209.404 115.139 223.461 129.192C234.341 107.43 251.113 96.7057 273.782 97.0061C295.389 97.3131 312.237 106.752 324.326 125.343C340.953 114.919 357.195 113.706 373.057 121.718C386.663 128.514 395.123 138.566 398.452 151.864C421.12 154.276 441.135 161.686 458.517 174.078C475.741 186.318 483.07 198.179 480.499 209.666C478.077 220.697 469.013 228.633 453.295 233.468C438.484 238.003 419.365 239.364 395.945 237.548V238.909C397.01 243.293 397.534 248.2 397.534 253.642C397.534 256.66 397.39 259.614 397.083 262.485C403.279 265.359 409.782 269.136 416.577 273.816C429.121 282.279 442.719 293.989 457.383 308.949C461.001 312.729 463.2 317.105 463.951 322.096C465.013 328.436 463.273 333.881 458.738 338.413C454.054 343.096 448.533 344.988 442.19 344.085C436.903 343.331 432.52 341.135 429.053 337.506C415.906 323.901 403.742 313.332 392.556 305.771C388.173 302.76 384.089 300.268 380.323 298.3C379.861 298.607 379.489 298.972 379.186 299.434C372.235 306.685 364.453 311.978 355.834 315.3C361.121 318.019 366.638 321.341 372.382 325.277C384.926 333.74 398.524 345.443 413.185 360.41C416.81 364.183 419.002 368.574 419.76 373.553C420.821 379.905 419.077 385.339 414.542 389.874C409.863 394.553 404.346 396.442 397.998 395.543C392.712 394.788 388.328 392.593 384.854 388.964C371.711 375.369 359.543 364.786 348.361 357.232C337.63 349.82 328.256 345.367 320.255 343.858H320.027C311.715 351.271 300.76 354.969 287.158 354.969C273.866 354.969 262.229 350.13 252.252 340.453C242.275 355.875 228.302 363.57 210.316 363.57C199.741 363.57 190.901 361.92 183.798 358.583C176.548 369.17 169.438 378.233 162.487 385.787C150.849 398.335 139.826 407.171 129.394 412.305C124.104 414.876 119.948 416.017 116.923 415.7C112.239 415.248 107.404 411.775 102.418 405.279C97.432 398.632 95.6952 393.497 97.2045 389.865C98.1144 387.749 101.212 385.409 106.495 382.834H106.723C114.128 379.216 122.21 372.63 130.98 363.112C140.05 353.143 149.413 340.223 159.086 324.357C159.537 323.603 160.065 322.928 160.671 322.314C160.22 319.147 159.992 315.818 159.992 312.344L159.996 310.301C152.139 318.165 143.069 322.844 132.799 324.354C119.801 336.14 107.715 345.593 96.5329 352.695C82.1729 361.758 69.2568 367.427 57.7707 369.691C52.0296 370.897 47.8015 370.897 45.0792 369.691C40.5513 368.03 36.695 363.415 33.521 355.865C30.4988 348.164 30.1918 342.801 32.6111 339.772C33.9724 337.812 37.5218 336.299 43.2625 335.237H43.49C51.6467 333.731 61.1721 329.503 72.0546 322.548C77.0411 319.371 82.3307 315.591 87.9204 311.218C80.363 302.906 76.5895 290.741 76.5895 274.72C76.5895 261.273 81.2727 249.712 90.6426 240.042L89.7252 239.581ZM421.571 186.993C421.571 178.684 417.491 174.529 409.331 174.529C401.174 174.529 397.094 178.685 397.094 186.993C397.094 195.301 401.174 199.457 409.331 199.457C417.491 199.457 421.571 195.304 421.571 186.993Z" fill="black"/>
</svg>
